<?xml version="1.0" encoding="UTF-8"?>
<svg id="Layer_1" xmlns="http://www.w3.org/2000/svg" version="1.1" viewBox="0 0 637.67 599.23">
  <!-- Generator: Adobe Illustrator 29.0.0, SVG Export Plug-In . SVG Version: 2.1.0 Build 186)  -->
  <defs>
    <style>
      .st0 {
        fill: #dc7444;
      }

      .st1 {
        fill: #db6e3e;
      }

      .st2 {
        fill: #da6938;
      }

      .st3 {
        fill: #db6d3c;
      }

      .st4 {
        fill: #dc7141;
      }

      .st5 {
        fill: #e59876;
      }

      .st6 {
        fill: #df703e;
      }

      .st7 {
        fill: #d76939;
      }

      .st8 {
        fill: #da6939;
      }

      .st9 {
        fill: #d76839;
      }

      .st10 {
        fill: #df6f3e;
      }
    </style>
  </defs>
  <path class="st2" d="M190.69,83.23l4.5,6.99c.17,1.72-.05,3.72,0,5.5-1.35,0-1.4.59-1.53,1.72-.2,1.83-.15,5.64.08,7.48.1.84.21,2.06,1.45,1.78.04,1.16-.06,2.34,0,3.5-1.82-.64-1.16,3.93.5,3.5.06.65-.08,1.35,0,2-1.81-.58-.99,2.87.5,2.5.05.32-.05.68,0,1-1.58-.22-.92.56-.78,1.52.4,2.65,1.07,5.52,2,8.02.29.79-.01,1.74,1.27,1.45.01.33-.02.67,0,1,.74,12.77,10.34,26.66,17.81,36.89,1.18,1.61,2.83,2.84,3.55,3.69.44.52.24,1.83,1.36,2.9.81.77,1.89.71,2.26.98,1.79,1.29,4.2,3.71,5.5,5.5.84,1.16.5,3.3,3.5,3,.18.15.32.35.5.5-.02,2.63,1.75,1.85,2.85,2.65,11.04,7.98,23.79,18.24,38.12,18.33.33,0,.67,0,1,0-.31,1.39,2.52,2.31,2,.5.5.03,1-.03,1.5,0-.26,1.96,4.01,2.27,3.5.5,1.6.08,3.97.18,5.5,0-.33,2.36,4.04-.07,5.5-.5,8.12-2.37,23.63-6.2,29.48-11.99,1.75.14,3.36-1.1,4.83-1.91,14.82-8.21,26.93-20.47,41.79-28.65,15.28-8.41,32.39-14.11,49.8-15.9.94-.07,2.44.38,3-.5,7.26-.44,16.76-.18,23.98.5l2,.5c1.57.19,3.6.27,5,.5l1.5.5c47.61,8.7,78.54,37.15,87.43,85.43l.5.5c.11.61-.1,1.38,0,2l.5.5c.18,1.22-.14,2.74,0,4l.5.5c.14,1.43-.1,3.03,0,4.5.03.8-.31,2.07.5,2.5.1,2.53.13,5.48,0,7.99l-.5,1c-.12,1.61.19,3.45,0,5l-.5.5c-6.87,49.03-51.94,76.96-95.17,91.93-25.49,8.83-51.76,10.12-76.69,20.73-5.48,2.33-10.56,5.34-15.99,7.74-.34.44,3.63,5.3,4.24,6,18.82,21.49,47.32,23.48,74.47,22,7.18-.39,14.17-2.28,21.21-3.52,0,2.49,0,5,0,7.49-.42-.03-.75.41-1,.5-2.52.91-5.22,1.39-7.84,1.93-.92.19-1.95-.45-1.66,1.07-.47.07-1.02-.07-1.5,0,.52-1.82-2.31-.89-2,.5-.65.08-1.35-.07-2,0,.48-1.79-3.21-1.38-3,.5-1.48.11-3.01-.07-4.5,0,.28-1.51-.76-.97-1.73-1-2.75-.09-5.79-.11-8.54,0-.96.04-2-.51-1.73,1-1.82-.06-3.68.1-5.5,0,.26-1.96-4.01-2.27-3.5-.5-1.15-.08-2.35.1-3.5,0,.16-1.81-2.95-2.3-2.5-.5-.82-.08-1.68.09-2.5,0,.16-1.81-2.95-2.3-2.5-.5-.64-.08-1.36.08-2,0,.05-1.75-2.36-2.31-2-.5-.47-.07-1.03.08-1.5,0,.24-1.18-.45-1.12-1.32-1.29-11.3-2.23-20.36-5.51-29.48-12.63-.65-.51-.82-1.38-2.18-1.07-.66-.56-1.02-1.06-1.5-1.5-.76-1.98-3.05-4.26-5-5-.37-.42-.98-.93-1.5-1.5.37-2.16-1.29-1.93-2-2.5-.18-.15-.33-.34-.5-.5.32-1.35-.57-1.53-1.07-2.18-2.06-2.67-4.65-5.11-5.47-8.52.1-.54,6.09-3,6.46-3.38.26-.26,0-.71.08-.91,5.55-2.39,10.99-5.6,16.64-8.09,1.59-.7,5.02-.75,5.35-2.9.57-.22,1.06-.33,1.5-.5.53,1.01,1.62.34,2.35.11,4.04-1.3,8.71-2.86,12.65-4.37.77-.3,1.79.15,1.49-1.23.95-.26,1.75-.31,2.5-.5l2.61.37,9.38-2.86c.33-.02.67.02,1,0,.92-.05,1.68.04,2-1,.16.02.34-.02.5,0,.72.09,2.24,1.58,2-.5.33.02.68-.04,1,0,.51.07,1.73,1.51,1.5-.5.5,0,1,0,1.5,0,.57,0,.64.06,1.5,0,.33-.02.67.03,1,0,20.31-1.79,50.12-15.08,67.35-25.96,1.02-.64,3.57-.49,3.6-2.52.49-.32,1-.67,1.5-1,1.93-.02,3.61-1.54,5.15-2.59,3.14-2.14,5.5-4.4,7.84-6.9.16-.17.35-.33.5-.5,2.26.38,2.31-1.66,3-2.5.91-1.1,1.69-1.63,2.5-2.5,2.31-.02,4.73-2.75,5-5,.53-.6,1.14-1.08,1.5-1.5,2.04-.04,1.97-1.97,2.66-2.83,5.63-7.06,11.67-14.39,13.83-23.64.22-.94.24-2.3.5-3.5,1.33.28.99-.66,1.23-1.49.79-2.72.84-3.4.77-6,0-.33.02-.67,0-1,2.11.26.55-1.38.5-2-.05-.65-.02-1.34,0-2,1.75.05,2.31-2.36.5-2,.04-1.33-.02-2.67,0-4,2.28-.06,1.51-4.64,1.26-6.03-.16-.84-.05-1.75-1.26-1.47-.02-1.33.04-2.67,0-4,1.8.45,1.31-2.66-.5-2.5,0-.66-.05-1.35,0-2s1.6-2.26-.5-2c.03-.33-.04-.67,0-1,.08-.7,1.58-2.25-.5-2,.02-.33,0-.67,0-1,0-.06.43-.31.43-.73,0-.99-.3-3.32-1.43-2.77,0-.33,0-.67,0-1-.25-11.5-12.15-33.2-20.48-40.97-.37-.34-.66-.66-1-1-.44-3.09-4.02-6.33-6.99-6.99-.18-.16-.32-.35-.5-.5-1-2.44-4.63-4.11-6.81-5.68-5.07-3.66-10.45-7.65-16.48-10.24-.64-.27-1.71-1.09-2.18-.06-.36-.15-.96-.29-1.5-.5.3-1.24-2.66-1.98-3.51-2.24-5.32-1.61-12.14-3.53-17.56-4.43-.94-.16-1.62-.95-1.42.67-.3-.06-.68.04-1,0,.27-2.11-1.39-.54-2-.5-.65.05-1.34.02-2,0-.05-1.57-1.73-2.32-1.5-.5-.66-.05-1.34.04-2,0,.16-1.81-2.95-2.3-2.5-.5-.99-.07-2.01.06-3,0,.33-2.08-5.07-2.22-4.5-.5-2.73-.1-5.77-.1-8.49,0,.67-1.81-4.95-1.32-4.5.5-.99.05-2-.04-3,0,.58-1.81-2.87-.99-2.5.5-.5,0-1.01.04-1.5,0-.62-.05-2.26-1.61-2,.5-.33-.03-.67,0-1,0-.83-.01-.94-.06-2,0-.33.02-.67-.04-1,0-1.58.19-5.49.08-5.5,2-.32.05-.68-.05-1,0-6.74,1.09-13.87,3.32-20.32,6.41-.73.35-2.37,1-2.16,2.08-.92.36-.86.69-2.5,1-.41.08-1.35-.13-1.5,0-.12.1.12.86,0,1-.29.35-.82.35-1,.5-1.6-.8-4.29,1.24-5.69,2.08-4.13,2.49-11.13,7.42-14.3,10.91-.14.15-.37.45-.5.5-.33.12-1.15-.21-1.45.06-.22.2.03.8-.05.94s-.38.46-.5.5c-.32.12-1.15-.21-1.45.06-.22.2.03.8-.05.94s-.38.46-.5.5c-.32.12-1.15-.21-1.45.06-.22.2.03.83-.05.94-.14.19-.34.33-.5.5-1.06-.08-3.53,1.36-3.5,2.5-.64.5-1.08.69-1.5,1-1.02-.1-1.64.29-2.46.78-15.77,9.42-29.98,19.15-48.92,21.3-1.12.13-1.55-.03-1.57,1.4-.95.11-2.02-.06-3,0,.28-1.51-.76-.97-1.73-1s-2.04-.04-3.04,0-2-.51-1.73,1c-.99-.05-2.02.1-3,0,.31-1.57-2.6-2.08-3-.5-.16-.02-.34.02-.5,0-2.03-1.85-6.03-1.85-8.61-2.63-8.38-2.52-17.13-6.64-24.17-11.28l-13.18-8.57c-.18-.15-.32-.35-.5-.5-.22-1.48-1.47-2.66-3-2.5-.62-.55-1.02-1.06-1.5-1.5-1.4-3.17-4.31-6.08-7.49-7.49-.44-.47-.95-.88-1.5-1.5.16-1.52-1.02-2.78-2.5-3-.15-.18-.35-.32-.5-.5.32-1.35-.57-1.53-1.07-2.18-9.39-12.19-16.9-27.19-20.7-42.25-.66-2.62-.72-5.56-1.44-8.2-.23-.82,0-1.58-1.28-1.33-.08-.47.07-1.03,0-1.5,1.82.52.89-2.31-.5-2-.06-.48.05-1.01,0-1.5,1.8.45,1.31-2.66-.5-2.5-.09-.99.06-2.01,0-3,1.82.66,1.24-4.44-.5-4-.14-3.81.1-7.67,0-11.49,2.74-.63,1.52-4.86-.31-5.93-2.71-1.59-2.15.09-2.69,1.43-.26.64-.47.69-1,1-.15.09-.77-.17-.95.04-.25.28.07,1.12-.05,1.46-.04.12-.35.37-.5.5-3.75,3.31-5.83,7.04-7.49,11.49-.17.45-.34.67-.5,1-1.26-.05-1.28.71-1.74,1.51-1.21,2.13-2.73,5.06-3.69,7.3-.27.64-1.09,1.71-.06,2.18-.15.34-.26.92-.5,1.5-1.31-.08-1.26.75-1.66,1.59-2.81,5.92-4.29,13.15-4.84,19.39-.03.33.04.67,0,1-1.39-.31-2.31,2.52-.5,2-.04.33.03.67,0,1-1.39-.31-2.31,2.52-.5,2-.05.66.05,1.34,0,2-1.58-.41-2.32,3.62-.5,3-.08,1.32.04,2.67,0,4-1.5-.36-1.54,3.51-1.54,4.25s.05,4.61,1.54,4.25c.04,1.16-.07,2.34,0,3.5-1.93-.39-1.15,3,.5,3.5.02.16-.02.34,0,.5-1.58.4-1.08,3.31.5,3,.05.32-.05.68,0,1-1.65-.21-.9.6-.74,1.53,3.15,18.17,16.82,39.06,27.93,52.45.59.72,1.3,1.37,2.28,1.48.25.28.65.61,1,1-.22,2.83,2.32,3.47,3.76,4.98,1.86,1.96,3.34,4.99,6.23,5.01.39.35.72.75,1,1,.08.91.57,1.47,1.25,2.02,16.88,13.52,37.31,25.31,59.2,27.46.33.03.67-.03,1,0-.42,1.43,3.14,1.84,4.3,1.96.93.1.71.02.7-.96.33.04.67-.04,1,0-.38,1.49,3.08,2.31,2.5.5.49.05,1.01-.05,1.5,0-.38,1.49,3.08,2.31,2.5.5.82.08,1.68-.06,2.5,0-.26,1.96,4.01,2.27,3.5.5,5.71.28,12.77.28,18.49,0-.64,1.82,3.93,1.16,3.5-.5.83-.06,1.67.06,2.5,0-.62,1.82,3.41,1.08,3-.5.49-.04,1.01.05,1.5,0,.45,1.57,2.82.89,2.5-.5.49-.04,1,.04,1.5,0-.52,1.82,2.31.89,2-.5.33,0,.68-.04,1,0,.7.08,2.25,1.58,2-.5.33.03.67-.02,1,0,1.07.07,3.77,1.78,4-1,.33-.02.67.03,1,0,11.58-.95,24.84-6.11,35.73-10.98.81-.36,2.44-.8,2.24-2.01.93-.37,1.04-.62,2.5-1,3.46-.89,7.11-2.38,10.59-4.15.78-.4,2.11-.66,1.9-1.84.95-.38.97-.63,2.5-1,.66-.16,1.41.1,3.1-.65.76-.33,3.09-1.22,2.89-2.35,1.64-.72,2.33-1.46,4.5-2,.15-.04,1.22.31,2.84-.41.71-.32,3.31-1.52,3.16-2.59.33-.16.66-.34,1-.5.33.89,1.56.08,2.12-.13,2.46-.93,5.14-2.31,7.57-3.45.74-.34,1.55-.26,1.3-1.42.59-.24,1.08-.34,1.5-.5.32.89,1.56.07,2.12-.12,4.11-1.43,7.35-2.82,11.7-3.81.9-.21,1.96.49,1.66-1.06.31-.06.68.05,1,0-.36,1.81,2.05,1.26,2-.5.81-.09,1.68.07,2.5,0-.48,1.79,3.21,1.38,3-.5,1.57-.04,3.47-.13,5,0,.05,2.18,2.21,1.08,3.69,1.51s4.06,1.35,5.49,2.05c2.37,1.16,4.22,3.42,6.81,3.93,1.05.94,1.56,1.41,2.5,2.5.22,2.34,2.22,4.08,3.1,6.14.49,1.15.73,2.62,1.15,3.87.27.81-.09,1.77,1.24,1.48.12,1.23.12,3.27,0,4.5-1.96-.02-1.35,2.09-1.89,3.36-.47,1.12-2.7,5.8-3.27,6.47-.49.57-1.66.8-2.29,1.46-13.95,14.67-40.77,20.23-60.01,25.95-.82.24-1.77-.1-1.49,1.23-2.81.72-5.69,1.28-8.49,2-.88-.88-5.8.06-5.5,1.5-1.23.31-2.59.27-3.5.5-7.66,1.95-15.24,4.73-22.53,7.73-.77.31-1.75-.05-1.46,1.27-.55.21-1.08.34-1.5.5-.33-.89-1.56-.08-2.12.13-4.3,1.62-8.91,3.5-13.07,5.45-.74.34-1.55.26-1.3,1.42-.61.27-1.17.35-1.5.5-.67-.93-3.2.15-3,1.5-.85.39-1.75.66-2.5,1-.52-.9-2.19.13-2.84.42-4.05,1.8-9.98,4.55-13.67,6.81-.77.47-1.54.58-1.48,1.77-.92.31-1.05.33-2,.5-2.63-.79-2.41-1.79-3.77-3.48-1.49-1.85-1.67-2.73-2.71-4.14-13.78-18.55-33.15-31.04-55.36-38.2-1.21-.39-3.46-1.44-4.6-.64-.55-.16-1.31-.31-2-.5.25-1.22-.55-1.1-1.38-1.34-1.89-.55-3.84-.79-5.78-1.24-.82-.19-1.51-1.17-1.33.59-.3-.06-.68.04-1,0,.25-2.09-1.31-.58-2-.5-.32.04-.67,0-1,0-.11-1.9-1.45-1.83-2.5-.5-.17-.01-.33.01-.5,0-.57-1.45-2.82-2.45-2.5-.5-.82-.07-1.67.05-2.5,0,.41-1.58-3.62-2.32-3-.5-4.88-.26-10.57-.13-15.49,0,.52-1.82-2.31-.89-2,.5-.97.03-2.03.07-3,0-.61-.04-2.26-1.61-2,.5-.66,0-1.34.05-2,0-.44-.03-1.75-1.53-1.5.5-.5-.01-1.01.04-1.5,0-.06,0-.46-.7-1-.5-.06.29.08.91,0,1-.05.05-1.18.03-1.5,0-.06,0-.67-.82-1-.5-.11.11.11.86,0,1-.03.04-.78.04-1,0-.59-.1-1.72-1.49-1.5.5-.33-.02-.67,0-1,0-.06,0-.33-.51-1.09-.42-.33.04-3.72.84-3.88.96-.14.11,0,.68-.03.96-.66.18-1.34.3-2,.5-.46-.99-1.59-.18-2.25,0-1.28.35-4.7.77-4.75,2.5-.65.16-1.35.33-2,.5-.13.03-1.01-.24-2.49.26-.99.34-4.6,1.49-4.51,2.73-2.19.95-4.21,2.12-6.49,3-4.67,1.8-9.18,4.41-12.99,7.99-1.38,1.3-2.28,2.1-4,3-.22.12-.98-.14-1.51.24s-.37,1.11-.49,1.26c-.39.49-.72.69-1,1-2.26-.37-2.3,1.64-3,2.5-1.42,1.74-3.02,3.31-4.5,5-2.58-.27-1.98,1.5-2.5,2.5-.17.33-.32.67-.5,1-2.33-.32-1.16.52-1.5,1.5-.11.33-.34.68-.5,1-2.32-.29-1.17.43-1.5,1.5-.52,1.67-.89,1.85-2,3-4.2,4.38-6.36,9.87-7.99,15.99-.31,1.16-.73,2.38-1,3.5-1.33-.28-.99.66-1.23,1.49-.93,3.21-1.34,4.87-1.27,8,.01.5.01,1,0,1.5-2.03-.25-.53,1.06-.5,1.5.05.65.01,1.34,0,2-2.11-.27-.54,1.39-.5,2,.09,1.31-.02,2.68,0,4-1.96-.16-1.56,3.57-1.52,4.77.03.87-.06,4.03,1.52,3.72-.02,1.32.09,2.68,0,4-.04.61-1.61,2.26.5,2,0,.66.05,1.34,0,2-.03.44-1.53,1.75.5,1.5,0,.5.04,1.01,0,1.5-.03.42-1.53,1.75.5,1.5-.01.5.04,1.01,0,1.5,0,.06-.82.67-.5,1,.11.11.86-.11,1,0,.04.03.03.76,0,1-.01.11-.49.33-.41,1.08.09.87.75,4.44,1.91,3.91.02.3.04.71,0,1,0,.06-.83.65-.5,1,.11.11.86-.11,1,0,.55.46.33,1.61.5,2-.66,1.2.49,5.21,2,5,.16.49.33,1.01.5,1.5.68,2,.82,3.31,2.09,5.68.37.7.2,1.58,1.41,1.31.14.31.33.62.5,1s.04,1.2.34,1.87c.09.19,1.84,2.6,2.16,2.12.15.28.52.37,1,1.5.12.28-.15.97.23,1.52s1.14.37,1.27.48c.82.71,1.1.89,1.5,2,.34.95-.85,1.83,1.5,1.5.17.33.33.67.5,1,.16.3-.11,1.07.46,1.79.51.65,1.32.53,1.54.71,2.49,1.98,4.6,4.4,6.99,6.49-.27,2.58,1.5,1.98,2.5,2.5.33.17.67.32,1,.5-.27,2.37,1.03,1.61,2,2,.14.06.35-.06.5,0-.27,2.29.36,1.18,1.5,1.5.15.04.35-.05.5,0-.24,2.22.24,1.23,1.5,1.5,1.34.29,1.13.79,1.5,1-.11,1.85,1.35,1.2,2,1.5,1.73.79,2.53,1.31,4,2.5,1.19.97,2.91,2.66,4.63,3.63.59.33,2.82,1.76,3.36.86.91.47,2.08,1.06,3,1.5-.29,1.14.77,1.3,1.7,1.42l.3-.42c.78.35,1.68.66,2.5,1-.27,1.28.61,1.03,1.37,1.36,2.16.94,5.86,2.75,8.13,2.14.64.21,1.34.32,2,.5-.25,2.07,2.44,1,3,1,.33,0,.67-.02,1,0-.23,2.02,1,.56,1.5.5.16-.02.33.02.5,0-.23,2.01.97.57,1.5.5.31-.04.67,0,1,0-.25,2.04,1.09.53,1.5.5.49-.03,1.01-.02,1.5,0-.25,2.09,1.3.58,2,.5.16-.02.33.02.5,0,.67,1.95,2.05.52,2.5.5.99-.04,2.01-.04,3,0-.16,1.81,2.95,2.3,2.5.5,4.44.12,9.05.12,13.49,0-.58,1.81,2.87.99,2.5-.5.81-.02,1.69-.06,2.5,0,.62.05,2.26,1.61,2-.5.66,0,1.34-.05,2,0,.44.03,1.75,1.53,1.5-.5.5,0,1.01-.04,1.5,0,.42.03,1.75,1.53,1.5-.5.33.03.68-.04,1,0,.53.07,1.73,1.51,1.5-.5.33.03.69-.05,1,0,.05,0,.65.83,1,.5.11-.11-.11-.86,0-1,.03-.04.78-.04,1,0,.05,0,.65.83,1,.5.11-.11-.11-.86,0-1,.16-.19,2.04-.52,2.5-.5.4.02,1.76,1.54,1.5-.5.62-.15,1.42-.33,2-.5.46.99,1.59.18,2.25,0,9.8-2.66,19.98-6.79,28.91-11.59.7-.37,1.58-.2,1.31-1.41.33-.16.66-.34,1-.5,4.24-2.02,5.71-2.55,8.99-5.5,1.45-1.3,1.84-1.59,3.5-2.5,1.19-.65.85-.31,2.17-1.35.58-.46,1.76.45,1.32-1.64.32-.19.67-.33,1-.5.23-.12.98.13,1.51-.24s.37-1.11.49-1.26c.4-.5.71-.68,1-1,1.71.16,3.17-1.37,3-3,.99-1,2.01-1.99,3-3,2.21.36,2.75-2.71,4.72-2.52s3.79,4.86,6.27,4.52c1.24,1.2,2.77,2.29,4,3.5-.16,1.71,1.37,3.17,3,3,.6.66,1.26,1.1,2,2,.3.36.19,1.35,1.23,2.03.75.5,1.58.35,1.77.46.77.47,1.32.94,2,1.5l-.5.25c-.11,1.48,1.5,1,2,1.24s1.03.67,1.5,1c-.32,2.33.52,1.16,1.5,1.5.33.11.68.34,1,.5-.32,2.33.52,1.16,1.5,1.5.33.11.68.33,1,.5-.16,1.61-.11,1.66,1.5,1.5.08.09.25.15.5.5.08.11-.17.74.05.94.3.27,1.13-.06,1.45.06,1.33.49,3.06,1.91,4,3,.11.13-.05.89.48,1.26s1.23.11,1.52.23c1.15.49,1.17.82,1.5,1l4.86,3.99c1.86.52,3.3,1.84,4.82,2.79.48.3,1.44,1.23,1.8.21,2.23,1.24,4.67,2.43,6.99,3.5-.45.94,2.37,2.15,3.02,2.3.74.18.92-.32.97-.3,1.23.33,1.98.69,3,1-.28,1.26.9,1.22,1.73,1.5,2.59.87,4.8,1.19,7.27,1.5,1.1.14,1.92.27,3,.5-.22,1.99.9.6,1.5.5.22-.04.97-.04,1,0,.12.13-.11.89,0,1,.34.33.94-.49,1-.5.3-.05.67,0,1,0-.23,2.01.98.57,1.5.5.32-.04.67,0,1,0-.25,2.09,1.32.58,2,.5.16-.02.34.02.5,0,.62,1.84,1.76.5,2,.5.5,0,1-.01,1.5,0-.25,2.03,1.06.53,1.5.5.49-.04,1,0,1.5,0-.27,2.11,1.38.54,2,.5.79-.06,1.7-.04,2.5,0-.25,2.03,1.06.53,1.5.5.8-.06,1.69-.02,2.5,0-.38,1.49,3.08,2.31,2.5.5,1.33.05,2.67-.06,4,0-.34,1.65,4.48,2.23,5,.5,4.03.13,8.46.13,12.49,0,.56,1.7,4.81,1.3,4.5-.5,1.49-.06,3,.05,4.5,0-.36,1.81,2.05,1.26,2-.5.97-.03,2.03-.07,3,0,.61.04,2.26,1.61,2-.5.5.02,1-.04,1.5,0,.61.04,2.26,1.61,2-.5.5.03,1-.04,1.5,0,.43.03,1.75,1.53,1.5-.5.33.03.67,0,1,0,.77,0,.4.26,2,0,.81-.13,1.7-.32,2.5-.5v8.49c-7.2.96-14.47,2.59-21.74,2.99-17.01.93-35.89-.37-51.73-3.71-14.64-3.09-27.62-8.29-40.2-16.26-14.27-9.03-27.13-20.55-39.53-31.95-3.41,2.51-6.38,5.56-9.73,8.16-22.46,17.41-52.43,28.19-80.38,30.78h-1c-.33.03-.67-.02-1,0l-2,.5c-1.98.07-4.01.02-6,0-.54-.84-2.06-.49-3-.5-42.7-.51-88.81-33.8-100.28-75.33-21.45-77.71,51.29-131.27,122.78-124.76.81.07,2.87.87,2.98.76.88-.82-.67-1.06-.98-1.24-21.72-12.64-38.38-25.96-52.58-47.35-6.67-10.06-15.39-25.37-18.13-36.82-8.63-36.07,3.39-76.66,29.23-102.42,2.85,1.24,6.93-.5,8.99,2.5ZM320.59,280.06c-.77.14-1.42.49-1.5.5-4.25.72-8.69,1.08-12.99,1.5-.92.09-1.9.49-2,.5-12.08,1-22.33-.05-34.23-.99-.55-.04-2.33-.4-2.24.49,1.19.24,2.28.84,3.33,1.42,10.2,5.67,21.58,13.36,29.4,22.06,2.66,2.96,5.51,8.13,7.97,10.51.42.41.72.98,1.42.9,17.66-8.84,35.81-17.02,54.54-23.41,20.55-7.01,75.47-16.99,87.6-33.3,7.18-9.65-2.11-20.56-12.15-21.65-20.62-2.24-52.91,18.08-72.36,26.57-15.41,6.73-30.15,11.92-46.8,14.9Z"/>
  <path class="st9" d="M454.98,477.89v-8.49c5.26-1.17,10.26-3.23,15.49-4.5v21.98l80.94-49.21-80.94-49.7v23.98c-5.19,1.65-10.25,3.49-15.49,5v-1c0-2.49,0-5,0-7.49,0-14.15-4.73-39.69,17.12-36.85,31.38,17.76,62.07,37.12,92.74,56.14,5.24,5.55,5.2,13.41.32,19.2-25.93,16.18-51.92,32.57-78.25,48.15-8.29,4.91-16.74,12.78-26.3,5.9-7.24-5.21-5.63-15.2-5.63-23.09Z"/>
  <path class="st7" d="M322.59,194.13c-5.84,5.79-21.36,9.62-29.48,11.99l-.5-1c36.38-15.21,54.75-60.32,39.06-96.75-23.03-53.46-99.68-64.69-140.48-25.14h-.5c-2.06-3-6.14-1.25-8.99-2.5,29.21-29.12,69.65-38.53,108.91-22.72,55.41,22.31,76.31,92.16,31.98,136.13Z"/>
  <path class="st5" d="M201.68,468.4c-.94-.01-2.45.34-3-.5.94.01,2.45-.34,3,.5Z"/>
  <path class="st4" d="M422.01,147.17c-.56.88-2.06.43-3,.5.81-.08,1.7-.42,3-.5Z"/>
  <path class="st8" d="M543.91,249.08c-.81-.43-.47-1.7-.5-2.5.02.24.45,1.37.5,2.5Z"/>
  <path class="st1" d="M447.99,148.17l-2-.5c.96.09,1.8.48,2,.5Z"/>
  <path class="st5" d="M209.68,467.9c-.1,0-.91.46-2,.5l2-.5Z"/>
  <path class="st3" d="M454.48,149.17l-1.5-.5c.8.13,1.42.49,1.5.5Z"/>
  <path class="st5" d="M211.68,467.9c-.61.06-.93,0-1,0h1Z"/>
  <path class="st8" d="M543.41,258.08l.5-1c-.05.89-.5.94-.5,1Z"/>
  <path class="st8" d="M543.41,242.09l-.5-.5s.46.12.5.5Z"/>
  <path class="st8" d="M542.91,237.59l-.5-.5s.44.11.5.5Z"/>
  <path class="st8" d="M542.91,263.57l.5-.5c-.05.38-.49.46-.5.5Z"/>
  <path class="st8" d="M542.41,235.1l-.5-.5s.43.11.5.5Z"/>
  <path class="st10" d="M186.2,95.22c.1,3.82-.14,7.68,0,11.49.06,1.53.43,2.85.5,4,.06.99-.09,2.01,0,3,.1,1.11.43,1.91.5,2.5.05.49-.06,1.02,0,1.5.12.94.43,1.56.5,2,.07.47-.08,1.03,0,1.5,3.46,21.41,10.96,37.36,24.48,53.95.15.18.35.32.5.5.8.97,1.6,1.98,2.5,3,.55.62,1.06,1.02,1.5,1.5,2.8,3.03,4.44,4.67,7.49,7.49.48.44.88.95,1.5,1.5,1.01.9,2.04,1.7,3,2.5.18.15.32.35.5.5,13.92,11.43,27.7,19.67,45.96,22.48.16.02.34-.02.5,0,.99.14,1.8.38,3,.5.97.1,2.01-.05,3,0,2.78.14,3.66.17,6.49,0,.98-.06,2.05.11,3,0,19.26-2.17,37.68-12.27,52.96-23.48.42-.31.85-.5,1.5-1,1.16-.9,2.15-1.03,3.5-2.5.16-.17.35-.31.5-.5.73,0,1.26-.3,1.5-1,.12-.04.42-.36.5-.5.73,0,1.26-.3,1.5-1,.12-.04.42-.36.5-.5.73,0,1.26-.3,1.5-1,.13-.05.36-.35.5-.5,3.56-1.85,6.51-4.7,9.84-6.9,3.04-2.02,7.5-3.96,10.15-6.09.18-.15.71-.15,1-.5l1.5-1c1.64-.31,1.58-.64,2.5-1,7.47-2.92,14.79-6.16,22.48-8.49.32-.05.68.05,1,0,.79-.11,5.25-.87,5.47-1.04.15-.12.01-.68.03-.96.32-.04.67.02,1,0,.27.86,1.44.41,2,0,.33,0,.67-.03,1,0,.63.06,1.68.19,2-.5.49.04,1,0,1.5,0,1.26.01,2.12-.48,2.5-.5.99-.04,2,.05,3,0,1.55-.08,3.32-.45,4.5-.5,2.73-.1,5.77-.1,8.49,0,1.17.04,2.98.41,4.5.5.99.06,2.01-.07,3,0,.41.03,1.41.43,2.5.5.66.04,1.34-.05,2,0,.08,0,.38.47,1.5.5.65.02,1.35.05,2,0,.36.8,1.36.42,2,.5.32.04.7-.06,1,0,6.55,1.21,16.31,3.63,22.48,5.99.54.21,1.14.35,1.5.5,7.1,2.95,19.74,10.99,25.48,15.99.18.15.32.34.5.5,2.16,1.9,4.81,4.84,6.99,6.99.34.34.63.66,1,1,2.66,4.21,5.83,8.05,8.4,12.34,5.41,9.03,8.97,18.61,12.09,28.63,0,.33,0,.67,0,1,0,1.05.31,2.65,1,3.5,0,.33.02.67,0,1-.04.64-.2,1.67.5,2-.04.33.03.67,0,1-.06.63-.19,1.68.5,2-.05.65,0,1.34,0,2,.01,1.18.49,2.2.5,2.5.04,1.33-.02,2.67,0,4,.03,2.49.03,5.01,0,7.49-.02,1.33.04,2.67,0,4,0,.13-.47.98-.5,2-.02.65-.05,1.35,0,2-.71.33-.54,1.36-.5,2,.02.33,0,.67,0,1-.83,2.4-1.47,5.01-2,7.49-.25,1.2-.28,2.56-.5,3.5-1.32-.29-.95.69-1.27,1.46-3.63,8.82-9.06,17.93-15.22,25.02-.36.42-.97.9-1.5,1.5-1.39,1.58-3.41,3.3-5,5-.81.87-1.59,1.4-2.5,2.5-1.5.09-2.15,1.52-3,2.5-.15.17-.34.33-.5.5-4.64,2.67-8.54,6.57-12.99,9.49-.5.33-1,.68-1.5,1-20.45,13.07-45.52,22.54-69.29,27.41-.92.19-1.95-.45-1.66,1.07-.33.03-.67-.02-1,0-.07-.75-1.43-.75-1.5,0-.5,0-1,0-1.5,0-.55-.01-1.27-.13-1.5.5-.32-.04-.67.02-1,0-.71-.04-1.39.13-2,.5-.16-.02-.33.02-.5,0-1.22-.13-2.35-.32-2,1-.33.02-.67-.02-1,0-4.89.26-7.36,1.31-11.99,2.5-.75.19-1.55.24-2.5.5-6.02,1.65-10.69,3.29-16.49,5.5-.44.17-.92.27-1.5.5-7.54,2.95-14.84,6.12-21.91,10.08-.23.29,0,.71-.08.91-.69.3-1.74.41-2.84.91-.99.45-5.19,2.91-5.19,3.83s6.83,9.18,8.02,10.25c.17.16.31.35.5.5-.06,1.43,1.35,1.78,2,2.5.51.56,1.12,1.08,1.5,1.5,2.09,2.36,2.71,2.91,5,5,.48.44.84.93,1.5,1.5,10.62,9.08,19.01,12.71,32.97,14.99.47.08,1.03-.07,1.5,0s1.07.38,2,.5c.64.08,1.36-.08,2,0s1.43.39,2.5.5c.82.09,1.68-.08,2.5,0,.51.05,1.41.41,2.5.5,1.15.1,2.34-.08,3.5,0,.83.06,2.15.42,3.5.5,1.82.1,3.67-.06,5.5,0,4.55.16,7.43.2,11.99,0,1.49-.07,3.02.11,4.5,0,1.24-.09,2.2-.42,3-.5.65-.07,1.35.08,2,0,.95-.11,1.59-.44,2-.5.48-.07,1.03.07,1.5,0,3.24-.52,6.33-1.15,9.49-2,.45-.12.78-.44,1-.5,5.24-1.51,10.3-3.35,15.49-5v-23.98l80.94,49.7-80.94,49.21v-21.98c-5.23,1.27-10.23,3.32-15.49,4.5-.8.18-1.69.37-2.5.5-.21-.78-1.84-.75-2,0-.33,0-.67.03-1,0-.53-.04-1.27-.1-1.5.5-.49-.04-1,.03-1.5,0-.64-.04-1.67-.21-2,.5-.5-.04-1,.02-1.5,0-.65-.03-1.67-.21-2,.5-.97-.07-2.02-.03-3,0-1.02.03-1.86.49-2,.5-1.49.05-3.01-.06-4.5,0s-3.47.47-4.5.5c-4.03.13-8.46.13-12.49,0-1.22-.04-3.31-.42-5-.5-1.33-.06-2.67.05-4,0-.31-.01-1.35-.47-2.5-.5-.81-.02-1.7-.06-2.5,0-.24-.65-.95-.47-1.5-.5-.8-.04-1.71-.06-2.5,0-.34-.73-1.34-.51-2-.5-.5,0-1.01-.04-1.5,0-.24-.65-.95-.48-1.5-.5-.5-.01-1,0-1.5,0-.31-.68-1.38-.57-2-.5-.16.02-.34-.02-.5,0-.61-.38-1.28-.51-2-.5-.33,0-.68-.04-1,0-.24-.62-.95-.51-1.5-.5-.33,0-.7-.05-1,0l-1-.5s-.78-.04-1,0c-.29-.71-.99-.39-1.5-.5-1.08-.23-1.9-.36-3-.5-2.86-1.29-6-2.09-8.99-3-1.02-.31-1.77-.67-3-1-1.01-1.22-2.72-1.41-4-2-2.32-1.06-4.77-2.26-6.99-3.5-3.9-2.16-7.57-4.81-11.49-6.99-.32-.18-.35-.51-1.5-1-.38-.87-1.01-1.46-2-1.5-.94-1.09-2.66-2.51-4-3-.22-.72-.77-.99-1.5-1-.25-.35-.42-.41-.5-.5-.54-.64-.58-1.01-1.5-1.5-.32-.17-.67-.39-1-.5-.31-.71-.82-1.15-1.5-1.5-.32-.16-.67-.39-1-.5-.28-.78-.88-1.06-1.5-1.5-.47-.33-1-.75-1.5-1-.26-.82-.95-1.05-1.5-1.5-.68-.56-1.22-1.03-2-1.5-.72-1.08-1.63-2.36-3-2.5-.74-.89-1.39-1.33-2-2-1-1.1-1.96-1.97-3-3-1.22-1.21-2.76-2.3-4-3.5-1.78-1.72-3.55-3.69-5.28-5.49-.69-.71-.69-2.32-1.76-1.19-1.26,1.33-2.6,3.29-3.96,4.68-.99,1.01-2.01,1.99-3,3s-2.01,1.9-3,3c-.29.32-.6.5-1,1-.99.03-1.62.63-2,1.5-.33.17-.68.31-1,.5-1.17.69-2.72,1.86-3.5,3-1.66.91-2.05,1.2-3.5,2.5l-8.99,5.5c-.34.16-.67.34-1,.5-10.51,5.02-21.28,9.65-32.47,12.99-.58.17-1.38.35-2,.5-.48.12-1.18-.19-1.5.5-.46-.02-2.34.31-2.5.5l-1,.5c-.22-.04-.97-.04-1,0l-1,.5c-.3-.05-.67.03-1,0-.53-.04-1.27-.1-1.5.5-.32-.04-.67.03-1,0-.53-.04-1.27-.1-1.5.5-.49-.04-1,0-1.5,0-.55,0-1.26-.13-1.5.5-.66-.05-1.34,0-2,0s-1.66-.23-2,.5c-.81-.06-1.68-.02-2.5,0-1.15.02-2.21.49-2.5.5-4.44.12-9.05.12-13.49,0-.26,0-1.4-.46-2.5-.5-.99-.04-2.01-.04-3,0-.37-.73-1.74-.57-2.5-.5-.17.02-.34-.02-.5,0-.61-.41-1.28-.48-2-.5-.49-.02-1.01-.03-1.5,0-.24-.63-.95-.51-1.5-.5-.33,0-.69-.04-1,0-.24-.6-.96-.55-1.5-.5-.16.02-.34-.02-.5,0-.46-.25-.97-.47-1.5-.5-.33-.02-.67,0-1,0-.78-.98-2.03-.74-3-1-.66-.18-1.36-.29-2-.5-3.06-.98-6.52-2.26-9.49-3.5-.82-.34-1.71-.65-2.5-1-.53-.23-1.33-.68-2-1-.92-.44-2.08-1.02-3-1.5-2.69-1.4-5.14-3.38-7.99-4.5-1.46-1.19-2.27-1.71-4-2.5-.31-1.21-1.32-1.11-2-1.5-.37-.21-.16-.71-1.5-1-.31-.61-.83-1.3-1.5-1.5-.15-.05-.35.04-.5,0-.33-.66-.79-1.23-1.5-1.5-.15-.06-.36.06-.5,0-.46-.87-1.14-1.53-2-2-.33-.18-.67-.33-1-.5-.53-1.16-1.61-1.72-2.5-2.5-2.4-2.1-4.51-4.52-6.99-6.49-.07-1.19-1.04-1.95-2-2.5-.17-.33-.33-.67-.5-1-.34-.68-.8-1.19-1.5-1.5-.4-1.11-.68-1.29-1.5-2-.03-.99-.63-1.62-1.5-2-.48-1.13-.85-1.22-1-1.5-.72-1.33-1.12-3.14-2.5-4-.17-.38-.36-.69-.5-1-1.06-2.37-1.82-4.93-3.5-6.99-.17-.49-.34-1.01-.5-1.5-.61-1.85-1.23-3.24-2-5-.17-.39.05-1.54-.5-2l-.5-1c.04-.29.02-.7,0-1-.11-1.39-.85-3.71-1.5-5,.03-.24.04-.97,0-1l-.5-1c.04-.49-.01-1,0-1.5.01-.55.13-1.26-.5-1.5.04-.49,0-1,0-1.5,0-.55.13-1.26-.5-1.5.05-.66,0-1.34,0-2s.23-1.66-.5-2c.09-1.31-.02-2.68,0-4,.04-2.82.04-5.67,0-8.49-.02-1.32.09-2.68,0-4,.75-.35.49-1.34.5-2s.05-1.35,0-2c.65-.24.48-.95.5-1.5.01-.5.01-1,0-1.5,1.03-3.09,1.73-6.33,2.5-9.49.27-1.11.69-2.33,1-3.5l7.99-15.99c1.1-1.15,1.48-1.33,2-3,.71-.31,1.15-.82,1.5-1.5.16-.32.39-.67.5-1,.72-.31,1.14-.82,1.5-1.5.17-.33.33-.67.5-1,1.16-.53,1.72-1.61,2.5-2.5,1.48-1.69,3.08-3.26,4.5-5,1.5-.08,2.14-1.53,3-2.5.27-.31.6-.51,1-1,.99-.03,1.62-.63,2-1.5,1.71-.89,2.62-1.7,4-3l12.99-7.99c2.28-.88,4.31-2.05,6.49-3s5.01-1.47,6.99-3c.65-.17,1.35-.34,2-.5,2.42-.59,4.64-1.78,6.99-2.5.66-.2,1.34-.32,2-.5,1.59-.43,3.65-.33,5-1.5.33,0,.67-.02,1,0,.54.03,1.27.11,1.5-.5.22.04.97.04,1,0l1-.5c.32.03,1.44.05,1.5,0l1-.5c.49.04,1-.01,1.5,0,.55.01,1.26.13,1.5-.5.66.05,1.34,0,2,0s1.66.23,2-.5c.97.07,2.02.03,3,0s1.87-.5,2-.5c4.92-.13,10.61-.26,15.49,0,.55.03,1.84.42,3,.5.83.05,1.68-.07,2.5,0,.46.04,1.41.42,2.5.5.17.01.33-.01.5,0,.66.06,1.33.5,2.5.5.33,0,.68.04,1,0,.36.8,1.36.42,2,.5.32.04.7-.06,1,0,2.37.44,6.12,1.35,8.49,2,.69.19,1.45.34,2,.5,14.83,4.33,33.84,14.04,45.47,24.22,7.41,6.49,12.81,14.52,18.48,22.49,1.34.82,1.86-.14,2.5-.25.95-.17,1.08-.19,2-.5,6.32-2.16,11.97-6.23,17.99-8.99.75-.34,1.65-.61,2.5-1,1.07-.49,2.11-1.1,3-1.5.33-.15.89-.23,1.5-.5,5.37-2.38,11.03-4.88,16.49-6.99.42-.16.95-.29,1.5-.5,7.4-2.83,15.02-5.13,22.5-7.75.8-.28,1.77.11,1.48-1.24.91-.23,2.26-.19,3.5-.5,1.85-.47,3.68-1.03,5.5-1.5,2.81-.72,5.68-1.27,8.49-2,9.98-2.57,20-5.04,29.74-8.48,12.68-4.49,37.65-14.51,39.21-29.98.12-1.23.12-3.26,0-4.5-.51-5.2-2.32-7.82-5.5-11.49-.94-1.09-1.44-1.56-2.5-2.5-4.82-4.29-9.28-6.91-15.99-7.49-1.53-.13-3.42-.04-5,0-1.35.04-2.27.44-3,.5-.82.07-1.69-.09-2.5,0-.98.12-1.53.42-2,.5-.31.05-.69-.06-1,0-6.35,1.14-9.7,2.7-15.49,5-.41.16-.91.26-1.5.5-3.78,1.55-7.31,3.25-10.99,5-.34.16-.67.34-1,.5-1.98.95-4.3,1.45-6,3-2.17.54-2.86,1.27-4.5,2-2.02.89-4.29,1.48-6,3-1.52.36-1.55.62-2.5,1-4.25,1.69-8.62,3.56-12.49,5.99-1.46.38-1.57.63-2.5,1-12.51,4.91-24.76,10.01-37.97,12.99-.33.03-.67-.02-1,0-1.18.07-3.01.33-4,1-.33-.02-.67.03-1,0-.63-.06-1.68-.19-2,.5-.32-.04-.67,0-1,0-1.15-.02-1.71.48-2,.5-.49.04-1.01-.04-1.5,0-1.07.09-2,.45-2.5.5s-1.01-.04-1.5,0c-1.11.1-2.26.44-3,.5-.82.06-1.67-.06-2.5,0-1.24.09-2.67.46-3.5.5-5.71.28-12.77.28-18.49,0-.83-.04-2.27-.41-3.5-.5-.82-.06-1.68.08-2.5,0-.51-.05-1.46-.4-2.5-.5-.49-.05-1.01.05-1.5,0s-1.51-.39-2.5-.5c-.33-.04-.67.04-1,0-1.43-.16-3.22-.81-5-1-.33-.03-.67.03-1,0-22.3-4.87-41.91-14.16-59.2-29-.47-.4-1.16-.39-1.25-.47-.28-.24-.61-.65-1-1-2.93-2.65-7.33-7.07-9.99-9.99-.35-.39-.75-.72-1-1-11.87-13.35-26.51-37.73-29.48-55.45-.05-.31.05-.68,0-1-.15-.99-.39-2.03-.5-3-.02-.16.02-.33,0-.5-.12-1.12-.45-2.66-.5-3.5-.07-1.16.04-2.34,0-3.5-.1-2.76-.09-5.73,0-8.49.04-1.32-.08-2.68,0-4,.04-.59.42-1.84.5-3,.05-.66-.05-1.34,0-2,.02-.22.41-1.1.5-2,.03-.33-.04-.67,0-1s.4-1.08.5-2c.04-.33-.03-.67,0-1,2.02-7,3.7-14.23,6.49-20.98.24-.58.35-1.16.5-1.5,1.48-3.41,3.8-7.43,5.5-10.99.16-.33.33-.54.5-1l7.49-11.49c.15-.13.46-.38.5-.5.7-.24.99-.77,1-1.5.52-.31.74-.36,1-1,3.89-1.86,2.93,1.85,3,4.5ZM193.59,343.15c-25.62,2.48-33.14,31.27-10.4,43.58,13.83,7.48,26.95,3.26,39.14-4.85,6.36-4.23,12.91-9.34,17.81-15.18l-4.97-4.97c-12.6-10.67-23.82-20.3-41.58-18.58Z"/>
  <path class="st6" d="M292.61,205.12c-1.26.53-3.71,1.34-5,1.5-1.53.18-3.89.08-5.5,0-.87-.04-2.18-.43-3.5-.5-.5-.03-1,.03-1.5,0-.24-.01-.87-.52-2-.5-.33,0-.67,0-1,0-8.55-2.29-16.76-5.39-24.49-9.73-5.55-3.11-11.63-7.15-16.48-11.25-.18-.15-.32-.34-.5-.5-1.03-.89-1.76-2.87-3.5-3-1.29-1.79-3.71-4.2-5.5-5.5l-10.4-13.33c-6.63-9.47-11.01-20.19-14.58-31.13-.02-.33.01-.67,0-1-.12-2.92-2.02-7.82-2.5-10.99-.05-.32.05-.68,0-1-.13-.89-.44-1.96-.5-2.5-.08-.65.06-1.34,0-2-.11-1.16-.45-2.68-.5-3.5-.06-1.16.04-2.34,0-3.5-.13-3.65.1-7.34,0-10.99-.05-1.78.17-3.78,0-5.5-.27-2.72-1.69-5.45-4-6.99,40.8-39.55,117.45-28.32,140.48,25.14,15.69,36.43-2.68,81.55-39.06,96.75Z"/>
  <path class="st8" d="M487.96,327.02c-.02,2.03-2.58,1.88-3.6,2.52-17.23,10.88-47.04,24.17-67.35,25.96-.29-1.51.74-.88,1.66-1.07,23.77-4.87,48.84-14.34,69.29-27.41Z"/>
  <path class="st8" d="M261.64,271.57c-21.89-2.15-42.33-13.94-59.2-27.46-.68-.55-1.18-1.1-1.25-2.02.09.08.78.07,1.25.47,17.29,14.84,36.89,24.13,59.2,29Z"/>
  <path class="st8" d="M344.07,191.63c-15.28,11.21-33.7,21.31-52.96,23.48.03-1.43.46-1.27,1.57-1.4,18.94-2.15,33.15-11.88,48.92-21.3.82-.49,1.44-.88,2.46-.78Z"/>
  <path class="st8" d="M463.48,255.58c-1.56,15.47-26.53,25.5-39.21,29.98-9.73,3.44-19.76,5.91-29.74,8.48-.29-1.33.67-.99,1.49-1.23,19.24-5.71,46.06-11.28,60.01-25.95.63-.66,1.8-.89,2.29-1.46.57-.67,2.8-5.35,3.27-6.47.54-1.27-.08-3.38,1.89-3.36Z"/>
  <path class="st8" d="M241.65,280.56c1.14-.79,3.39.25,4.6.64,22.21,7.16,41.58,19.65,55.36,38.2,1.04,1.41,1.23,2.29,2.71,4.14,1.36,1.69,1.14,2.69,3.77,3.48-.63.11-1.16,1.07-2.5.25-5.67-7.97-11.07-16-18.48-22.49-11.63-10.18-30.64-19.9-45.47-24.22Z"/>
  <path class="st8" d="M159.72,174.65c2.96,17.72,17.61,42.1,29.48,55.45-.98-.11-1.69-.76-2.28-1.48-11.11-13.39-24.78-34.28-27.93-52.45-.16-.92-.91-1.74.74-1.53Z"/>
  <path class="st8" d="M187.69,121.19c1.28-.25,1.05.51,1.28,1.33.72,2.64.78,5.58,1.44,8.2,3.8,15.06,11.31,30.06,20.7,42.25.5.65,1.39.82,1.07,2.18-13.52-16.59-21.02-32.54-24.48-53.95Z"/>
  <path class="st8" d="M274.13,205.62c-14.32-.1-27.07-10.35-38.12-18.33-1.11-.8-2.87-.01-2.85-2.65,4.85,4.1,10.92,8.14,16.48,11.25,7.73,4.34,15.94,7.44,24.49,9.73Z"/>
  <path class="st8" d="M223.67,175.65c-.37-.27-1.45-.21-2.26-.98-1.12-1.06-.92-2.38-1.36-2.9-.72-.85-2.38-2.08-3.55-3.69-7.47-10.23-17.08-24.13-17.81-36.89,3.57,10.94,7.96,21.66,14.58,31.13l10.4,13.33Z"/>
  <path class="st8" d="M363.06,257.58c.2,1.21-1.43,1.64-2.24,2.01-10.89,4.88-24.15,10.03-35.73,10.98,13.21-2.98,25.46-8.08,37.97-12.99Z"/>
  <path class="st8" d="M511.94,188.64c8.34,7.77,20.23,29.46,20.48,40.97-3.12-10.02-6.67-19.6-12.09-28.63-2.57-4.28-5.74-8.13-8.4-12.34Z"/>
  <path class="st8" d="M229.16,192.13l13.18,8.57c7.04,4.63,15.79,8.76,24.17,11.28,2.58.78,6.58.78,8.61,2.63-18.27-2.81-32.04-11.05-45.96-22.48Z"/>
  <path class="st8" d="M361.06,403.45c1.35-.31,1.53.56,2.18,1.07,9.12,7.12,18.18,10.4,29.48,12.63.87.17,1.56.11,1.32,1.29-13.96-2.28-22.36-5.91-32.97-14.99Z"/>
  <path class="st8" d="M270.13,441.42c.27,1.21-.62,1.03-1.31,1.41-8.93,4.8-19.12,8.93-28.91,11.59-.66.18-1.79.99-2.25,0,11.2-3.33,21.96-7.97,32.47-12.99Z"/>
  <path class="st8" d="M453.98,157.66c-.2-1.63.48-.83,1.42-.67,5.42.9,12.24,2.82,17.56,4.43.85.26,3.8,1,3.51,2.24-6.18-2.36-15.93-4.79-22.48-5.99Z"/>
  <path class="st8" d="M372.55,366.48c-.32,2.14-3.76,2.2-5.35,2.9-5.64,2.49-11.09,5.7-16.64,8.09-.07.2.18.65-.08.91-.36.37-6.36,2.83-6.46,3.38.81,3.41,3.41,5.85,5.47,8.52.5.65,1.38.82,1.07,2.18-1.19-1.07-8.02-9.34-8.02-10.25s4.2-3.38,5.19-3.83c1.1-.5,2.14-.61,2.84-.91.07-.2-.15-.62.08-.91,7.06-3.97,14.37-7.13,21.91-10.08Z"/>
  <path class="st8" d="M403.02,159.16c-7.69,2.34-15.02,5.58-22.48,8.49-.21-1.09,1.43-1.73,2.16-2.08,6.45-3.09,13.58-5.32,20.32-6.41Z"/>
  <path class="st8" d="M377.05,298.04c.29,1.35-.69.96-1.48,1.24-7.48,2.63-15.1,4.92-22.5,7.75-.29-1.32.69-.95,1.46-1.27,7.28-2.99,14.87-5.78,22.53-7.73Z"/>
  <path class="st8" d="M166.71,118.7c-2.79,6.75-4.48,13.98-6.49,20.98.55-6.24,2.03-13.47,4.84-19.39.4-.84.35-1.68,1.66-1.59Z"/>
  <path class="st8" d="M328.08,317.53c-6.02,2.77-11.67,6.83-17.99,8.99-.06-1.19.71-1.29,1.48-1.77,3.69-2.26,9.62-5.01,13.67-6.81.65-.29,2.31-1.31,2.84-.42Z"/>
  <path class="st8" d="M390.53,360.49c.3,1.38-.72.94-1.49,1.23-3.93,1.51-8.61,3.07-12.65,4.37-.73.23-1.82.91-2.35-.11,5.8-2.2,10.46-3.85,16.49-5.5Z"/>
  <path class="st8" d="M419.51,420.44c-.28-1.51.76-.96,1.73-1,2.75-.11,5.79-.09,8.54,0,.96.03,2-.51,1.73,1-4.56.2-7.44.16-11.99,0Z"/>
  <path class="st8" d="M455.48,237.1c-2.59-.51-4.44-2.77-6.81-3.93-1.42-.7-3.94-1.6-5.49-2.05s-3.64.68-3.69-1.51c6.71.59,11.17,3.2,15.99,7.49Z"/>
  <path class="st8" d="M477.97,164.16c.47-1.02,1.54-.21,2.18.06,6.03,2.59,11.41,6.58,16.48,10.24,2.18,1.57,5.81,3.24,6.81,5.68-5.74-5-18.38-13.04-25.48-15.99Z"/>
  <path class="st8" d="M531.42,278.06c-2.16,9.25-8.2,16.58-13.83,23.64-.69.86-.62,2.79-2.66,2.83,6.16-7.09,11.59-16.2,15.22-25.02.31-.76-.05-1.75,1.27-1.46Z"/>
  <path class="st8" d="M351.57,307.54c-5.46,2.12-11.12,4.61-16.49,6.99-.25-1.16.57-1.07,1.3-1.42,4.16-1.95,8.77-3.83,13.07-5.45.55-.21,1.78-1.02,2.12-.13Z"/>
  <path class="st8" d="M200.18,241.09c-2.9-.02-4.37-3.05-6.23-5.01-1.44-1.52-3.98-2.16-3.76-4.98,2.66,2.92,7.07,7.34,9.99,9.99Z"/>
  <path class="st8" d="M297.11,420.94c1.35-1.38,2.7-3.34,3.96-4.68,1.07-1.13,1.07.47,1.76,1.19,1.73,1.8,3.5,3.77,5.28,5.49-2.48.34-4.36-4.34-6.27-4.52s-2.51,2.88-4.72,2.52Z"/>
  <path class="st8" d="M195.19,95.72c.1,3.65-.13,7.34,0,10.99-1.23.28-1.34-.95-1.45-1.78-.23-1.84-.28-5.65-.08-7.48.13-1.13.17-1.73,1.53-1.72Z"/>
  <path class="st8" d="M426.01,230.6c.3,1.54-.76.85-1.66,1.06-4.35.99-7.59,2.39-11.7,3.81-.56.2-1.8,1.01-2.12.12,5.79-2.29,9.14-3.85,15.49-5Z"/>
  <path class="st8" d="M172.71,106.21c-1.7,3.56-4.02,7.58-5.5,10.99-1.02-.47-.21-1.54.06-2.18.96-2.23,2.48-5.17,3.69-7.3.46-.8.48-1.56,1.74-1.51Z"/>
  <path class="st8" d="M378.04,250.58c.22,1.18-1.12,1.44-1.9,1.84-3.48,1.78-7.14,3.26-10.59,4.15,3.88-2.44,8.24-4.31,12.49-5.99Z"/>
  <path class="st8" d="M463.48,251.08c-1.33.29-.97-.67-1.24-1.48-.42-1.25-.66-2.72-1.15-3.87-.88-2.07-2.88-3.8-3.1-6.14,3.18,3.67,4.98,6.29,5.5,11.49Z"/>
  <path class="st8" d="M196.19,119.2c.48,3.17,2.38,8.07,2.5,10.99-1.28.29-.98-.66-1.27-1.45-.93-2.5-1.61-5.37-2-8.02-.14-.96-.8-1.74.78-1.52Z"/>
  <path class="st8" d="M224.17,187.64c-3.05-2.82-4.69-4.46-7.49-7.49,3.19,1.41,6.09,4.33,7.49,7.49Z"/>
  <path class="st8" d="M502.45,316.53c-2.33,2.5-4.7,4.76-7.84,6.9-1.54,1.05-3.22,2.57-5.15,2.59,4.45-2.92,8.35-6.83,12.99-9.49Z"/>
  <path class="st8" d="M116.25,321.52l-7.99,15.99c1.64-6.11,3.79-11.6,7.99-15.99Z"/>
  <path class="st8" d="M405.02,357.49l-9.38,2.86-2.61-.37c4.63-1.19,7.1-2.24,11.99-2.5Z"/>
  <path class="st8" d="M103.76,361.49c.04,2.82.04,5.67,0,8.49-1.59.31-1.49-2.85-1.52-3.72-.04-1.2-.44-4.93,1.52-4.77Z"/>
  <path class="st8" d="M510.94,187.64c-2.18-2.15-4.83-5.09-6.99-6.99,2.98.66,6.55,3.91,6.99,6.99Z"/>
  <path class="st8" d="M183.2,90.72c.54-1.34-.02-3.02,2.69-1.43,1.83,1.07,3.05,5.3.31,5.93-.07-2.65.89-6.35-3-4.5Z"/>
  <path class="st8" d="M409.02,236.1c.25,1.16-.57,1.08-1.3,1.42-2.44,1.14-5.11,2.52-7.57,3.45-.55.21-1.78,1.02-2.12.13,3.68-1.74,7.21-3.45,10.99-5Z"/>
  <path class="st8" d="M158.72,154.67c-.09,2.77-.1,5.73,0,8.49-1.5.36-1.54-3.51-1.54-4.25s.05-4.61,1.54-4.25Z"/>
  <path class="st8" d="M180.7,93.72l-7.49,11.49c1.66-4.45,3.75-8.18,7.49-11.49Z"/>
  <path class="st8" d="M534.92,248.59c1.21-.28,1.1.63,1.26,1.47.26,1.39,1.03,5.97-1.26,6.03.03-2.49.03-5.01,0-7.49Z"/>
  <path class="st8" d="M231.16,278.06c-.18-1.76.52-.77,1.33-.59,1.94.45,3.89.69,5.78,1.24.83.24,1.63.13,1.38,1.34-2.37-.64-6.12-1.56-8.49-2Z"/>
  <path class="st8" d="M174.21,454.91c-2.27.61-5.96-1.2-8.13-2.14-.75-.33-1.63-.08-1.37-1.36,2.97,1.23,6.43,2.52,9.49,3.5Z"/>
  <path class="st8" d="M281.62,215.11c-.28-1.51.76-.96,1.73-1s2.04-.04,3.04,0,2-.51,1.73,1c-2.84.17-3.72.14-6.49,0Z"/>
  <path class="st8" d="M453.98,416.44v1c-3.16.85-6.25,1.48-9.49,2-.29-1.52.74-.88,1.66-1.07,2.62-.54,5.32-1.02,7.84-1.93Z"/>
  <path class="st8" d="M195.19,90.22l-4.5-6.99h.5c2.31,1.55,3.72,4.28,4,6.99Z"/>
  <path class="st8" d="M107.26,341.01c-.77,3.16-1.47,6.41-2.5,9.49-.08-3.13.34-4.8,1.27-8,.24-.83-.1-1.77,1.23-1.49Z"/>
  <path class="st8" d="M375.55,466.9c-2.47-.31-4.67-.63-7.27-1.5-.83-.28-2-.24-1.73-1.5,3,.91,6.14,1.71,8.99,3Z"/>
  <path class="st8" d="M375.55,170.15c-2.65,2.13-7.1,4.07-10.15,6.09-3.33,2.2-6.28,5.05-9.84,6.9,3.17-3.49,10.17-8.42,14.3-10.91,1.4-.84,4.09-2.88,5.69-2.08Z"/>
  <path class="st8" d="M513.44,306.04c-.27,2.24-2.68,4.98-5,5,1.58-1.7,3.6-3.42,5-5Z"/>
  <path class="st8" d="M292.61,205.12l.5,1c-1.46.43-5.83,2.86-5.5.5,1.28-.16,3.74-.97,5-1.5Z"/>
  <path class="st8" d="M114.25,408.45c-1.21.27-1.03-.62-1.41-1.31-1.27-2.37-1.41-3.68-2.09-5.68,1.68,2.06,2.43,4.62,3.5,6.99Z"/>
  <path class="st8" d="M359.56,401.95c-2.28-2.09-2.91-2.64-5-5,1.95.74,4.24,3.01,5,5Z"/>
  <path class="st8" d="M174.7,281.06c-2.36.72-4.58,1.91-6.99,2.5.04-1.73,3.47-2.15,4.75-2.5.66-.18,1.79-.99,2.25,0Z"/>
  <path class="st8" d="M533.92,267.07c.07,2.61.02,3.28-.77,6-.24.83.09,1.77-1.23,1.49.53-2.49,1.17-5.09,2-7.49Z"/>
  <path class="st8" d="M165.71,284.06c-1.99,1.52-4.74,2.02-6.99,3-.09-1.25,3.52-2.4,4.51-2.73,1.47-.5,2.36-.23,2.49-.26Z"/>
  <path class="st8" d="M414.52,472.39c-.52,1.73-5.34,1.15-5-.5,1.68.08,3.78.46,5,.5Z"/>
  <path class="st8" d="M397.03,241.59c.16,1.07-2.45,2.27-3.16,2.59-1.62.72-2.69.37-2.84.41,1.69-1.54,4.01-2.05,6-3Z"/>
  <path class="st8" d="M440,156.16c-1.51-.09-3.33-.46-4.5-.5-.58-1.72,4.82-1.58,4.5.5Z"/>
  <path class="st8" d="M386.54,246.59c.2,1.13-2.13,2.02-2.89,2.35-1.7.75-2.44.49-3.1.65,1.71-1.51,3.97-2.1,6-3Z"/>
  <path class="st8" d="M267.63,272.56c.02.99.24,1.06-.7.96-1.15-.12-4.72-.54-4.3-1.96,1.78.19,3.57.84,5,1Z"/>
  <path class="st8" d="M431.5,471.89c.31,1.8-3.94,2.2-4.5.5,1.03-.03,2.94-.43,4.5-.5Z"/>
  <path class="st8" d="M422.51,156.16c-.45-1.82,5.16-2.31,4.5-.5-1.18.04-2.95.42-4.5.5Z"/>
  <path class="st8" d="M409.52,157.16c-.02.28.12.85-.03.96-.22.17-4.67.92-5.47,1.04,0-1.92,3.91-1.81,5.5-2Z"/>
  <path class="st8" d="M386.04,296.04c-1.82.46-3.65,1.03-5.5,1.5-.31-1.44,4.62-2.38,5.5-1.5Z"/>
  <path class="st8" d="M186.2,106.71c1.74-.45,2.32,4.65.5,4-.07-1.15-.44-2.46-.5-4Z"/>
  <path class="st8" d="M414.02,420.44c-1.35-.08-2.67-.44-3.5-.5-.52-1.77,3.75-1.46,3.5.5Z"/>
  <path class="st8" d="M110.26,399.96c-1.51.21-2.66-3.8-2-5,.77,1.76,1.39,3.15,2,5Z"/>
  <path class="st8" d="M281.12,274.06c.52,1.77-3.75,1.46-3.5-.5,1.22.09,2.67.46,3.5.5Z"/>
  <path class="st8" d="M152.22,290.05l-12.99,7.99c3.81-3.58,8.32-6.2,12.99-7.99Z"/>
  <path class="st8" d="M181.7,279.06c-1.35,1.17-3.41,1.07-5,1.5.02-.28-.12-.85.03-.96.16-.12,3.55-.92,3.88-.96.76-.09,1.04.42,1.09.42Z"/>
  <path class="st8" d="M282.12,206.62c.52,1.77-3.75,1.46-3.5-.5,1.31.07,2.63.46,3.5.5Z"/>
  <path class="st8" d="M232.66,184.14c-3,.3-2.66-1.84-3.5-3,1.73.12,2.47,2.1,3.5,3Z"/>
  <path class="st8" d="M303.1,273.56c.44,1.66-4.14,2.32-3.5.5.83-.04,2.25-.41,3.5-.5Z"/>
  <path class="st8" d="M195.19,110.2c.05.82.39,2.34.5,3.5-1.66.44-2.32-4.14-.5-3.5Z"/>
  <path class="st8" d="M324.09,270.57c-.22,2.78-2.92,1.07-4,1,.99-.67,2.81-.93,4-1Z"/>
  <path class="st8" d="M107.26,390.96c-1.16.53-1.82-3.04-1.91-3.91-.08-.76.4-.97.41-1.08.65,1.29,1.39,3.61,1.5,5Z"/>
  <path class="st8" d="M434.5,229.6c.21,1.88-3.48,2.29-3,.5.73-.06,1.65-.46,3-.5Z"/>
  <path class="st8" d="M158.72,166.66c.05.84.38,2.37.5,3.5-1.65-.5-2.43-3.89-.5-3.5Z"/>
  <path class="st8" d="M436,420.44c-.21-1.88,3.48-2.29,3-.5-.8.08-1.76.41-3,.5Z"/>
  <path class="st8" d="M159.22,147.67c-.08,1.16-.46,2.41-.5,3-1.82.62-1.08-3.41.5-3Z"/>
  <path class="st8" d="M216.17,276.06c-.62-1.82,3.41-1.08,3,.5-1.15-.08-2.44-.47-3-.5Z"/>
  <path class="st8" d="M157.22,447.92c-.55.9-2.78-.53-3.36-.86-1.72-.97-3.44-2.67-4.63-3.63,2.85,1.12,5.3,3.1,7.99,4.5Z"/>
  <path class="st8" d="M363.56,462.9s-.23.48-.97.3c-.65-.15-3.48-1.36-3.02-2.3,1.28.59,2.99.78,4,2Z"/>
  <path class="st8" d="M308.6,273.06c.41,1.58-3.62,2.32-3,.5.74-.06,1.89-.4,3-.5Z"/>
  <path class="st8" d="M315.09,429.43c-1.63.17-3.16-1.29-3-3,1.04,1.03,2,1.9,3,3Z"/>
  <path class="st8" d="M291.11,426.93c.99-1.1,1.99-1.97,3-3,.17,1.63-1.29,3.16-3,3Z"/>
  <path class="st8" d="M320.09,433.93c-.19-.11-1.01.03-1.77-.46-1.04-.68-.93-1.67-1.23-2.03,1.37.14,2.28,1.42,3,2.5Z"/>
  <path class="st8" d="M132.24,303.54c-.86.96-1.49,2.42-3,2.5.7-.85.74-2.87,3-2.5Z"/>
  <path class="st8" d="M534.42,242.09c1.81-.16,2.3,2.95.5,2.5,0-.3-.49-1.32-.5-2.5Z"/>
  <path class="st8" d="M215.17,178.64c-.9-1.02-1.69-2.03-2.5-3,1.48.22,2.66,1.47,2.5,3Z"/>
  <path class="st8" d="M505.94,313.53c-.69.83-.74,2.88-3,2.5.85-.98,1.5-2.41,3-2.5Z"/>
  <path class="st8" d="M198.19,459.41c.45,1.8-2.66,1.31-2.5-.5,1.1.04,2.24.49,2.5.5Z"/>
  <path class="st8" d="M275.63,214.61c.4-1.58,3.31-1.08,3,.5-1.2-.12-2.01-.36-3-.5Z"/>
  <path class="st8" d="M402.03,419.44c-1.07-.11-1.88-.42-2.5-.5-.45-1.8,2.66-1.31,2.5.5Z"/>
  <path class="st8" d="M186.7,113.7c1.81-.16,2.3,2.95.5,2.5-.07-.59-.4-1.38-.5-2.5Z"/>
  <path class="st8" d="M228.66,191.63c-.96-.8-1.99-1.6-3-2.5,1.52-.16,2.78,1.02,3,2.5Z"/>
  <path class="st8" d="M445.49,156.66c-1.09-.07-2.08-.47-2.5-.5-.45-1.8,2.66-1.31,2.5.5Z"/>
  <path class="st8" d="M407.02,419.94c-1.09-.09-1.98-.45-2.5-.5-.45-1.8,2.66-1.31,2.5.5Z"/>
  <path class="st8" d="M280.12,435.43c-3.28,2.94-4.75,3.48-8.99,5.5l8.99-5.5Z"/>
  <path class="st8" d="M271.13,273.06c.58,1.81-2.87.99-2.5-.5.99.11,2.01.45,2.5.5Z"/>
  <path class="st8" d="M275.13,273.56c.58,1.81-2.87.99-2.5-.5,1.04.1,1.99.45,2.5.5Z"/>
  <path class="st8" d="M333.58,315.03c-.89.4-1.93,1.01-3,1.5-.21-1.35,2.32-2.43,3-1.5Z"/>
  <path class="st8" d="M532.42,230.6c1.13-.55,1.43,1.78,1.43,2.77,0,.41-.43.67-.43.73-.69-.84-1-2.44-1-3.5Z"/>
  <path class="st8" d="M195.69,115.7c.06.54.37,1.61.5,2.5-1.49.38-2.31-3.08-.5-2.5Z"/>
  <path class="st8" d="M214.17,458.91c.38,1.49-3.08,2.31-2.5.5.28,0,1.35-.48,2.5-.5Z"/>
  <path class="st8" d="M405.52,471.89c.58,1.81-2.87.99-2.5-.5,1.15.03,2.19.49,2.5.5Z"/>
  <path class="st8" d="M417.01,156.66c-.38-1.49,3.08-2.31,2.5-.5-.38.02-1.24.51-2.5.5Z"/>
  <path class="st8" d="M159.72,173.65c-1.57.31-2.08-2.6-.5-3,.11.96.35,2.01.5,3Z"/>
  <path class="st8" d="M312.6,272.56c.33,1.39-2.05,2.07-2.5.5.5-.05,1.43-.41,2.5-.5Z"/>
  <path class="st8" d="M179.2,456.41c-.56,0-3.24,1.07-3-1,.97.26,2.22.02,3,1Z"/>
  <path class="st8" d="M124.74,311.03c-.78.89-1.34,1.97-2.5,2.5.52-1-.08-2.77,2.5-2.5Z"/>
  <path class="st8" d="M224.17,277.06c-1.09-.08-2.04-.46-2.5-.5-.32-1.95,1.93-.95,2.5.5Z"/>
  <path class="st8" d="M134.74,432.93c-1-.52-2.77.08-2.5-2.5.89.78,1.97,1.34,2.5,2.5Z"/>
  <path class="st8" d="M438,471.4c.05,1.75-2.36,2.31-2,.5.14,0,.97-.47,2-.5Z"/>
  <path class="st8" d="M534.92,260.08c1.81-.36,1.26,2.05-.5,2,.03-1.02.5-1.87.5-2Z"/>
  <path class="st8" d="M397.53,418.94c-.93-.12-1.55-.43-2-.5-.36-1.81,2.05-1.26,2,.5Z"/>
  <path class="st8" d="M227.16,277.56c-1.17,0-1.84-.44-2.5-.5,1.05-1.33,2.39-1.4,2.5.5Z"/>
  <path class="st8" d="M429,230.1c.05,1.75-2.36,2.31-2,.5.47-.07,1.01-.38,2-.5Z"/>
  <path class="st8" d="M125.24,423.94c-.22-.17-1.03-.06-1.54-.71-.57-.72-.3-1.49-.46-1.79.96.54,1.93,1.31,2,2.5Z"/>
  <path class="st8" d="M353.06,395.46c-.65-.71-2.06-1.07-2-2.5.71.56,2.37.34,2,2.5Z"/>
  <path class="st8" d="M440.99,419.94c-.31-1.39,2.52-2.31,2-.5-.41.06-1.05.39-2,.5Z"/>
  <path class="st8" d="M187.19,117.7c1.39-.31,2.31,2.52.5,2-.07-.43-.38-1.06-.5-2Z"/>
  <path class="st8" d="M198.69,276.56c-.31-1.39,2.52-2.31,2-.5-.12,0-.99.47-2,.5Z"/>
  <path class="st8" d="M160.22,140.68c-.1.92-.46,1.68-.5,2-1.82.52-.89-2.31.5-2Z"/>
  <path class="st8" d="M277.12,206.12c.52,1.82-2.31.89-2-.5,1.13-.02,1.76.49,2,.5Z"/>
  <path class="st8" d="M316.09,272.07c.31,1.39-2.52,2.31-2,.5.29-.02.85-.52,2-.5Z"/>
  <path class="st8" d="M159.72,143.67c-.09.9-.48,1.78-.5,2-1.82.52-.89-2.31.5-2Z"/>
  <path class="st8" d="M192.69,458.91c-.45.02-1.83,1.45-2.5-.5.75-.07,2.12-.23,2.5.5Z"/>
  <path class="st8" d="M352.56,457.41c-.36,1.01-1.33.09-1.8-.21-1.52-.96-2.96-2.27-4.82-2.79l-4.86-3.99c3.92,2.18,7.59,4.83,11.49,6.99Z"/>
  <path class="st8" d="M117.25,413.44c-.32.48-2.07-1.93-2.16-2.12-.3-.67-.18-1.5-.34-1.87,1.38.85,1.78,2.66,2.5,4Z"/>
  <path class="st8" d="M137.73,435.43c-.97-.39-2.27.37-2-2,.86.47,1.54,1.13,2,2Z"/>
  <path class="st8" d="M104.26,355.49c-.01.66.25,1.65-.5,2-.04-.61-1.61-2.26.5-2Z"/>
  <path class="st8" d="M349.07,188.14c-1.35,1.47-2.33,1.6-3.5,2.5-.03-1.14,2.44-2.57,3.5-2.5Z"/>
  <path class="st8" d="M319.09,271.57c.25,2.08-1.3.58-2,.5.32-.69,1.37-.56,2-.5Z"/>
  <path class="st8" d="M195.69,276.56c-.34.73-1.34.51-2,.5-.27-2.11,1.38-.54,2-.5Z"/>
  <path class="st8" d="M448.99,157.16c-1.11-.03-1.42-.49-1.5-.5-.23-1.82,1.45-1.07,1.5.5Z"/>
  <path class="st8" d="M415.51,156.66c-.32.69-1.37.56-2,.5-.26-2.11,1.38-.55,2-.5Z"/>
  <path class="st8" d="M290.11,427.93c-.12.15.06.88-.49,1.26s-1.28.12-1.51.24c.38-.87,1.01-1.46,2-1.5Z"/>
  <path class="st8" d="M442.99,470.9c.27,2.11-1.38.54-2,.5.33-.71,1.35-.53,2-.5Z"/>
  <path class="st8" d="M104.26,375.98c-2.11.27-.54-1.39-.5-2,.73.34.51,1.34.5,2Z"/>
  <path class="st8" d="M446.49,470.4c.27,2.11-1.39.54-2,.5.33-.71,1.35-.54,2-.5Z"/>
  <path class="st8" d="M396.53,470.9c-.62.04-2.26,1.61-2-.5.65,0,1.66-.23,2,.5Z"/>
  <path class="st8" d="M452.49,469.9c-1.6.26-1.23,0-2,0,.16-.75,1.79-.78,2,0Z"/>
  <path class="st8" d="M534.42,264.07c.05.62,1.61,2.26-.5,2-.04-.64-.21-1.67.5-2Z"/>
  <path class="st8" d="M450.99,157.16c.61-.04,2.26-1.61,2,.5-.63-.08-1.64.3-2-.5Z"/>
  <path class="st8" d="M228.16,277.56c.69-.08,2.25-1.59,2,.5-.63-.08-1.64.3-2-.5Z"/>
  <path class="st8" d="M218.67,458.41c.26,2.1-1.38.55-2,.5.34-.73,1.34-.51,2-.5Z"/>
  <path class="st8" d="M533.42,235.1c2.08-.25.58,1.3.5,2-.7-.32-.54-1.36-.5-2Z"/>
  <path class="st8" d="M119.75,416.94c-.13-.11-.89.05-1.27-.48s-.11-1.23-.23-1.52c.87.38,1.46,1.01,1.5,2Z"/>
  <path class="st8" d="M135.24,301.04c-.38.87-1.01,1.46-2,1.5.12-.15-.06-.88.49-1.26s1.29-.12,1.51-.24Z"/>
  <path class="st8" d="M162.21,450.41l-.3.42c-.93-.12-1.98-.28-1.7-1.42.67.32,1.47.77,2,1Z"/>
  <path class="st8" d="M339.57,449.41c-.29-.12-.97.15-1.52-.23s-.37-1.14-.48-1.26c.99.03,1.62.63,2,1.5Z"/>
  <path class="st8" d="M533.92,238.09c2.1-.26.55,1.37.5,2-.69-.32-.56-1.37-.5-2Z"/>
  <path class="st8" d="M145.23,440.92c-.65-.3-2.11.35-2-1.5.68.39,1.69.29,2,1.5Z"/>
  <path class="st8" d="M323.59,436.92c-.49-.25-2.1.24-2-1.24l.5-.25c.55.45,1.24.68,1.5,1.5Z"/>
  <path class="st8" d="M287.12,429.93c.44,2.09-.74,1.18-1.32,1.64-1.32,1.04-.99.7-2.17,1.35.78-1.14,2.33-2.3,3.5-3Z"/>
  <path class="st8" d="M189.69,458.41c-.7.08-2.24,1.59-2-.5.72.02,1.39.09,2,.5Z"/>
  <path class="st8" d="M387.54,469.4c-.68.08-2.25,1.59-2-.5.71-.01,1.39.11,2,.5Z"/>
  <path class="st8" d="M390.03,469.9c-.23,0-1.38,1.34-2-.5.62-.07,1.69-.18,2,.5Z"/>
  <path class="st8" d="M412.52,157.16c-.56.41-1.72.86-2,0,1.06-.06,1.17-.01,2,0Z"/>
  <path class="st8" d="M408.02,356.49c-.31,1.04-1.08.95-2,1-.35-1.32.78-1.13,2-1Z"/>
  <path class="st8" d="M410.52,355.99c.24,2.08-1.28.59-2,.5.61-.37,1.29-.54,2-.5Z"/>
  <path class="st8" d="M191.69,277.06c-.23.63-.95.51-1.5.5-.25-2.03,1.06-.53,1.5-.5Z"/>
  <path class="st8" d="M416.01,355.49c-.86.06-.93,0-1.5,0,.07-.75,1.43-.75,1.5,0Z"/>
  <path class="st8" d="M122.75,420.44c-2.35.33-1.16-.55-1.5-1.5.7.31,1.16.82,1.5,1.5Z"/>
  <path class="st8" d="M413.02,355.49c.23,2.01-.98.57-1.5.5.23-.63.95-.51,1.5-.5Z"/>
  <path class="st8" d="M104.76,352c-.02.55.15,1.26-.5,1.5-.03-.44-1.53-1.75.5-1.5Z"/>
  <path class="st8" d="M139.73,436.92c-1.14-.32-1.77.79-1.5-1.5.71.27,1.17.84,1.5,1.5Z"/>
  <path class="st8" d="M400.53,471.4c-.44.03-1.75,1.53-1.5-.5.55.03,1.26-.16,1.5.5Z"/>
  <path class="st8" d="M104.76,379.47c-2.03.25-.53-1.06-.5-1.5.63.23.51.95.5,1.5Z"/>
  <path class="st8" d="M449.49,469.9c.25,2.03-1.06.53-1.5.5.23-.6.97-.54,1.5-.5Z"/>
  <path class="st8" d="M141.73,438.42c-1.26-.27-1.74.72-1.5-1.5.67.2,1.19.89,1.5,1.5Z"/>
  <path class="st8" d="M393.03,470.4c-.43.03-1.75,1.53-1.5-.5.55.02,1.26-.15,1.5.5Z"/>
  <path class="st8" d="M326.58,439.42c-.98-.34-1.82.84-1.5-1.5.61.43,1.22.72,1.5,1.5Z"/>
  <path class="st8" d="M105.26,382.47c-2.03.25-.53-1.08-.5-1.5.63.23.51.95.5,1.5Z"/>
  <path class="st8" d="M184.2,278.56c-.23.61-.96.53-1.5.5-.22-1.99.9-.6,1.5-.5Z"/>
  <path class="st8" d="M329.08,441.42c-.98-.34-1.82.84-1.5-1.5.68.35,1.19.79,1.5,1.5Z"/>
  <path class="st8" d="M384.54,468.9c-.51.07-1.73,1.51-1.5-.5.55-.01,1.26-.12,1.5.5Z"/>
  <path class="st8" d="M331.58,443.42c-1.61.16-1.65.11-1.5-1.5.92.48.95.86,1.5,1.5Z"/>
  <path class="st8" d="M380.04,467.9c-.59.1-1.72,1.49-1.5-.5.51.11,1.21-.21,1.5.5Z"/>
  <path class="st8" d="M119.75,317.03c-.35.68-.79,1.19-1.5,1.5.33-1.07-.82-1.79,1.5-1.5Z"/>
  <path class="st8" d="M222.17,457.91c.25,2.03-1.06.53-1.5.5.23-.63.95-.51,1.5-.5Z"/>
  <path class="st8" d="M121.75,314.53c-.36.68-.78,1.19-1.5,1.5.34-.98-.84-1.82,1.5-1.5Z"/>
  <path class="st8" d="M225.16,457.41c.25,2.03-1.08.53-1.5.5.23-.6.97-.54,1.5-.5Z"/>
  <path class="st8" d="M186.2,457.91c-.41.03-1.75,1.54-1.5-.5.55,0,1.26-.13,1.5.5Z"/>
  <path class="st8" d="M227.66,456.91c.23,2.01-.97.57-1.5.5.23-.6.96-.54,1.5-.5Z"/>
  <path class="st8" d="M183.7,457.41c-.53.07-1.73,1.51-1.5-.5.54-.05,1.26-.1,1.5.5Z"/>
  <path class="st8" d="M454.98,415.94v1c-.22.06-.55.38-1,.5v-1c.25-.09.58-.53,1-.5Z"/>
  <path class="st8" d="M235.66,454.91c.26,2.04-1.1.52-1.5.5.32-.69,1.02-.38,1.5-.5Z"/>
  <path class="st8" d="M351.07,186.64c-.24.7-.77.99-1.5,1,.08-.11-.17-.74.05-.94.3-.27,1.13.06,1.45-.06Z"/>
  <path class="st8" d="M181.7,456.91c-.5.06-1.73,1.52-1.5-.5.53.03,1.04.25,1.5.5Z"/>
  <path class="st8" d="M182.2,91.72c0,.73-.3,1.26-1,1.5.12-.34-.2-1.18.05-1.46.18-.21.81.05.95-.04Z"/>
  <path class="st8" d="M355.06,183.64c-.24.7-.77.99-1.5,1,.08-.13-.17-.74.05-.94.3-.27,1.12.06,1.45-.06Z"/>
  <path class="st8" d="M353.06,185.14c-.24.7-.77.99-1.5,1,.08-.13-.17-.74.05-.94.3-.27,1.13.06,1.45-.06Z"/>
  <path class="st8" d="M333.58,444.92c-.31-.11-1.15.21-1.45-.06-.22-.2.03-.83-.05-.94.73,0,1.28.28,1.5,1Z"/>
  <path class="st8" d="M378.04,168.65l-1.5,1c.11-.14-.12-.89,0-1,.15-.13,1.09.08,1.5,0Z"/>
  <path class="st0" d="M306.1,282.06l-2,.5c.1,0,1.08-.41,2-.5Z"/>
  <path class="st8" d="M382.04,468.4c-.05,0-.65.83-1,.5-.11-.11.11-.86,0-1l1,.5Z"/>
  <path class="st8" d="M107.76,392.96c-.14-.12-.89.11-1,0-.33-.34.49-.94.5-1l.5,1Z"/>
  <path class="st8" d="M105.76,384.97c-.13-.12-.89.11-1,0-.32-.33.49-.94.5-1l.5,1Z"/>
  <path class="st8" d="M186.2,278.06l-1,.5c.12-.13-.11-.89,0-1,.33-.32.94.49,1,.5Z"/>
  <path class="st8" d="M229.66,456.41c-.12.13.11.89,0,1-.34.33-.94-.49-1-.5l1-.5Z"/>
  <path class="st8" d="M231.66,455.91c-.12.14.11.89,0,1-.34.33-.94-.49-1-.5l1-.5Z"/>
  <path class="st8" d="M188.69,277.56l-1,.5c.09-.08-.06-.71,0-1,.54-.2.94.49,1,.5Z"/>
  <path class="st3" d="M320.59,280.06l-1.5.5c.08-.01.73-.36,1.5-.5Z"/>
</svg>